<svg width="57" height="57" viewBox="0 0 57 57" fill="none" xmlns="http://www.w3.org/2000/svg">
<g filter="url(#filter0_d_610_6786)">
<circle cx="28.5" cy="28.5" r="24.5" fill="white"/>
</g>
<g clip-path="url(#clip0_610_6786)">
<path d="M29.0975 18.6402C31.5128 18.6402 33.7305 19.4671 35.5009 20.8423L40.9344 15.6585C37.7753 12.8737 33.64 11.1707 29.0975 11.1707C22.2142 11.1707 16.245 15.0547 13.241 20.7464L19.283 25.5163C20.7466 21.5076 24.5822 18.6402 29.0975 18.6402Z" fill="#F44336"/>
<path d="M46.869 31.3411C46.9623 30.6067 47.0242 29.8574 47.0242 29.0975C47.0242 27.816 46.8843 26.5681 46.6287 25.3628H29.0974V32.8323H38.7872C38.0033 34.8696 36.6076 36.5936 34.831 37.7913L40.8954 42.579C44.1102 39.7572 46.3101 35.8057 46.869 31.3411Z" fill="#2196F3"/>
<path d="M18.6402 29.0975C18.6402 27.8375 18.8745 26.635 19.2829 25.5163L13.2409 20.7464C11.9241 23.2415 11.1707 26.0801 11.1707 29.0975C11.1707 32.0812 11.9102 34.8884 13.1997 37.3632L19.2493 32.5872C18.8619 31.4944 18.6402 30.3232 18.6402 29.0975Z" fill="#FFC107"/>
<path d="M29.0975 39.5549C24.5478 39.5549 20.6875 36.644 19.2494 32.5872L13.1997 37.3633C16.1891 43.1006 22.1804 47.0244 29.0975 47.0244C33.6207 47.0244 37.7453 45.344 40.8955 42.579L34.8311 37.7913C33.1926 38.8959 31.2314 39.5549 29.0975 39.5549Z" fill="#00B060"/>
<path opacity="0.1" d="M29.0975 46.6509C23.8215 46.6509 19.0775 44.4741 15.7234 41.0059C19.0067 44.6906 23.7739 47.0244 29.0975 47.0244C34.3718 47.0244 39.0995 44.7367 42.3755 41.1097C39.0313 44.5216 34.3233 46.6509 29.0975 46.6509Z" fill="black"/>
<path opacity="0.1" d="M29.0974 32.4588V32.8323H38.7872L38.9385 32.4588H29.0974Z" fill="black"/>
<path d="M47.016 29.3172C47.0171 29.2436 47.0243 29.1713 47.0243 29.0976C47.0243 29.0767 47.021 29.0565 47.0209 29.0356C47.0199 29.1297 47.0151 29.2227 47.016 29.3172Z" fill="#E6E6E6"/>
<path opacity="0.2" d="M29.0974 25.3628V25.7363H46.7039C46.6804 25.613 46.6547 25.4852 46.6287 25.3628H29.0974Z" fill="white"/>
<path d="M46.6288 25.3628H29.0975V32.8323H38.7872C37.2804 36.7487 33.5451 39.5549 29.0975 39.5549C23.3221 39.5549 18.6402 34.8729 18.6402 29.0975C18.6402 23.3221 23.3221 18.6402 29.0975 18.6402C31.1917 18.6402 33.1219 19.2836 34.7572 20.3443C35.0074 20.507 35.2657 20.6597 35.5008 20.8423L40.9344 15.6585L40.8118 15.5643C37.6679 12.8395 33.5845 11.1707 29.0975 11.1707C19.1967 11.1707 11.1707 19.1968 11.1707 29.0975C11.1707 38.9982 19.1967 47.0244 29.0975 47.0244C38.2367 47.0244 45.7626 40.1804 46.869 31.3411C46.9624 30.6067 47.0243 29.8574 47.0243 29.0975C47.0243 27.816 46.8843 26.5681 46.6288 25.3628Z" fill="url(#paint0_linear_610_6786)"/>
<path opacity="0.1" d="M34.7571 19.9708C33.1219 18.9101 31.1917 18.2667 29.0975 18.2667C23.3221 18.2667 18.6401 22.9486 18.6401 28.724C18.6401 28.7871 18.641 28.8363 18.6421 28.8991C18.7428 23.2108 23.3851 18.6402 29.0975 18.6402C31.1917 18.6402 33.1219 19.2836 34.7571 20.3443C35.0074 20.5069 35.2656 20.6597 35.5008 20.8423L40.9343 15.6585L35.5008 20.4688C35.2656 20.2862 35.0074 20.1335 34.7571 19.9708Z" fill="black"/>
<path opacity="0.2" d="M29.0975 11.5442C33.5419 11.5442 37.5872 13.1851 40.719 15.864L40.9344 15.6585L40.77 15.5154C37.6261 12.7906 33.5845 11.1707 29.0975 11.1707C19.1967 11.1707 11.1707 19.1968 11.1707 29.0975C11.1707 29.1605 11.1794 29.2214 11.18 29.2843C11.2813 19.4706 19.2597 11.5442 29.0975 11.5442Z" fill="white"/>
</g>
<defs>
<filter id="filter0_d_610_6786" x="0" y="0" width="57" height="57" filterUnits="userSpaceOnUse" color-interpolation-filters="sRGB">
<feFlood flood-opacity="0" result="BackgroundImageFix"/>
<feColorMatrix in="SourceAlpha" type="matrix" values="0 0 0 0 0 0 0 0 0 0 0 0 0 0 0 0 0 0 127 0" result="hardAlpha"/>
<feOffset/>
<feGaussianBlur stdDeviation="2"/>
<feComposite in2="hardAlpha" operator="out"/>
<feColorMatrix type="matrix" values="0 0 0 0 0 0 0 0 0 0 0 0 0 0 0 0 0 0 0.25 0"/>
<feBlend mode="normal" in2="BackgroundImageFix" result="effect1_dropShadow_610_6786"/>
<feBlend mode="normal" in="SourceGraphic" in2="effect1_dropShadow_610_6786" result="shape"/>
</filter>
<linearGradient id="paint0_linear_610_6786" x1="11.1707" y1="29.0975" x2="47.0243" y2="29.0975" gradientUnits="userSpaceOnUse">
<stop stop-color="white" stop-opacity="0.2"/>
<stop offset="1" stop-color="white" stop-opacity="0"/>
</linearGradient>
<clipPath id="clip0_610_6786">
<rect width="35.8537" height="35.8537" fill="white" transform="translate(11.1707 11.1707)"/>
</clipPath>
</defs>
</svg>
